<?xml version="1.0" encoding="iso-8859-1"?>
<svg version="1.1" id="warehouse"
	xmlns="http://www.w3.org/2000/svg"
	xmlns:xlink="http://www.w3.org/1999/xlink" x="0px" y="0px" width="150px" height="150px" viewBox="0 0 409.711 409.711" style="enable-background:new 0 0 409.711 409.711;" xml:space="preserve">
	<path style="fill:#2AC6BE;" d="M206.855,239.2c-42.4,0-76-34.4-76-76s34.4-76,76-76s76,34.4,76,76l0,0
	C283.655,204.8,249.255,239.2,206.855,239.2z"/>
	<path style="fill:#B7F3F9;" d="M198.055,396c-32.8-38.4-141.6-169.6-141.6-240c0-81.6,65.6-147.2,147.2-147.2
	s147.2,65.6,147.2,147.2l0,0c0,70.4-108,201.6-141.6,240l-4.8,7.2L198.055,396z M206.855,86.4c-42.4,0-76,34.4-76,76s34.4,76,76,76
	s76-34.4,76-76C283.655,120.8,249.255,86.4,206.855,86.4z"/>
	<g>
		<path style="fill:#082B33;" d="M204.455,0c-85.6,0-155.2,69.6-155.2,155.2c0,83.2,143.2,245.6,149.6,252c3.2,3.2,8,3.2,11.2,0.8
		l0.8-0.8c6.4-7.2,149.6-168.8,149.6-252C359.655,70.4,290.055,0.8,204.455,0z M204.455,390.4c-27.2-32-139.2-166.4-139.2-234.4
		c0-76.8,62.4-139.2,139.2-139.2s139.2,62.4,139.2,139.2C343.655,224,231.655,358.4,204.455,390.4z"/>
		<path style="fill:#082B33;" d="M206.855,78.4c-46.4,0-84,37.6-84,84s37.6,84,84,84s84-37.6,84-84
		C291.655,116,254.055,78.4,206.855,78.4z M206.855,231.2c-37.6,0-68-30.4-68-68s30.4-68,68-68s68,30.4,68,68l0,0
		C275.655,200,245.255,231.2,206.855,231.2z"/>
	</g>
</svg>
