<svg xmlns="http://www.w3.org/2000/svg" width="19" height="25" viewBox="0 0 19 25">
    <path fill="none" fill-rule="evenodd" stroke="#887FFF" stroke-opacity=".5" d="M14.688 24C15.41 24 18 22.327 18 21.5v-12c0-.827-.589-1.5-1.313-1.5H14.75V7c0-3.309-2.355-6-5.25-6S4.25 3.691 4.25 7v1H2.312C1.59 8 1 8.673 1 9.5v12c0 .827 2.589 2.5 3.313 2.5h10.375zM5.124 7c0-2.757 1.963-5 4.375-5s4.375 2.243 4.375 5v1h-8.75V7h0zm11.563 2c.24 0 .437.224.437.5V22v-.5c0 .276-2.197 1.5-2.438 1.5H4.313c-.241 0-2.438-1.224-2.438-1.5v-12c0-.276.197-.5.438-.5h14.374z"/>
</svg>
