<svg xmlns="http://www.w3.org/2000/svg" width="23" height="24" viewBox="0 0 23 24">
    <path fill="none" fill-rule="evenodd" stroke="#887FFF" stroke-opacity=".5" d="M1.276 17.948l10 5c.071.035.147.053.224.053.077 0 .153-.018.224-.053l10-5c.169-.085.276-.258.276-.447v-12c0-.094-.031-.18-.079-.257-.015-.025-.037-.041-.057-.063-.028-.032-.048-.07-.084-.094-.018-.012-.04-.012-.059-.022-.014-.007-.021-.023-.036-.029l-10-4c-.119-.048-.252-.048-.371 0l-10 4c-.014.007-.021.022-.035.03-.019.009-.041.009-.059.021-.036.024-.057.062-.085.094-.019.022-.041.038-.056.063-.048.077-.079.163-.079.257v12c0 .189.107.362.276.447h0zM2 6.24l9 3.6v11.852l-9-4.5V6.24h0zm10 15.452V9.84l9-3.6v10.952l-9 4.5h0zM11.5 2.04l8.654 3.461L11.5 8.962 2.846 5.501 11.5 2.04h0z"/>
</svg>
