<svg xmlns="http://www.w3.org/2000/svg" xmlns:xlink="http://www.w3.org/1999/xlink" width="30" height="24" viewBox="0 0 30 24">
    <defs>
        <path id="a" d="M0 .05h29.978V24H0z"/>
    </defs>
    <g fill="none" fill-rule="evenodd">
        <g>
            <mask id="b" fill="#fff">
                <use xlink:href="#a"/>
            </mask>
            <path fill="#9B9B9B" d="M15.024 5.96c-4.65-.016-8.44 3.634-8.456 8.142-.015 4.494 3.756 8.206 8.353 8.222 4.671.015 8.47-3.611 8.488-8.106.02-4.577-3.701-8.241-8.385-8.258m-7.803-1.7c.03-.55.023-1.069.094-1.578A3.093 3.093 0 0 1 10.428.05c3.305.037 6.61.012 9.916.01 1.854 0 3.349 1.421 3.385 3.223.006.309 0 .617 0 .962.129.006.237.015.346.015l2.771.001c1.69.003 3.128 1.385 3.13 3.025.003 4.608.003 9.215 0 13.823-.002 1.564-1.35 2.886-2.955 2.888-4.784.005-9.567.002-14.35.002-3.214 0-6.427.003-9.64-.001-1.685-.002-3.021-1.276-3.024-2.91-.009-4.559-.01-9.116 0-13.674.004-1.637 1.235-3.017 2.824-3.136.848-.063 1.704-.016 2.555-.018h1.835" mask="url(#b)"/>
        </g>
        <path fill="#9B9B9B" d="M15.006 9A4.99 4.99 0 0 1 20 14.05c-.026 2.806-2.361 4.991-5.099 4.95-2.672-.041-4.91-2.304-4.901-5.014A5.007 5.007 0 0 1 15.006 9z"/>
    </g>
</svg>
