<?xml version="1.0"?>
<svg xmlns="http://www.w3.org/2000/svg" id="Layer_1" data-name="Layer 1" viewBox="0 0 512 512" width="512" height="512"><title>office building location map pin</title><path d="M129.568,195.887H216.49a6,6,0,0,0,0-12H129.568a6,6,0,0,0,0,12Z" style="fill:#0635c9"/><path d="M338.809,243.03H282.765a6,6,0,0,0,0,12h56.044a6,6,0,0,0,0-12Z" style="fill:#0635c9"/><path d="M129.568,242.205H216.49a6,6,0,0,0,0-12H129.568a6,6,0,0,0,0,12Z" style="fill:#0635c9"/><path d="M129.568,288.522H216.49a6,6,0,0,0,0-12H129.568a6,6,0,0,0,0,12Z" style="fill:#0635c9"/><path d="M129.568,334.841H216.49a6,6,0,0,0,0-12H129.568a6,6,0,0,0,0,12Z" style="fill:#0635c9"/><path d="M129.568,381.158H216.49a6,6,0,0,0,0-12H129.568a6,6,0,0,0,0,12Z" style="fill:#0635c9"/><path d="M368.378,183.887H261.226V109.43a6,6,0,0,0-6-6h-17.16V64.319a6,6,0,0,0-6-6H184.029V22.146a6,6,0,0,0-12,0V58.319H113.992a6,6,0,0,0-6,6V103.43H90.833a6,6,0,0,0-6,6V419.51a6,6,0,0,0,6,6H320.924v-12h-59.7V195.887H362.378v150.68h12V189.887A6,6,0,0,0,368.378,183.887ZM119.992,70.319H226.066V103.43H119.992ZM249.226,413.51H96.833V115.43H249.226Z" style="fill:#0635c9"/><path d="M338.809,277H282.765a6,6,0,0,0,0,12h56.044a6,6,0,0,0,0-12Z" style="fill:#0635c9"/><path d="M338.809,310.964H282.765a6,6,0,0,0,0,12h56.044a6,6,0,0,0,0-12Z" style="fill:#0635c9"/><path d="M409.844,358.572c-22.865-21.779-60.068-21.778-82.931,0a54.657,54.657,0,0,0-7.547,70.985l44.077,63.71a6,6,0,0,0,9.869,0l44.078-63.71A54.659,54.659,0,0,0,409.844,358.572Zm-2.323,64.157-39.143,56.579-39.143-56.579a42.712,42.712,0,0,1,5.955-55.466h0a48.659,48.659,0,0,1,66.376,0A42.709,42.709,0,0,1,407.521,422.729Z" style="fill:#1ae5be"/><path d="M368.378,365.828A32.472,32.472,0,1,0,400.85,398.3,32.509,32.509,0,0,0,368.378,365.828Zm0,52.943A20.472,20.472,0,1,1,388.85,398.3,20.5,20.5,0,0,1,368.378,418.771Z" style="fill:#1ae5be"/></svg>
