<?xml version="1.0"?>
<svg xmlns="http://www.w3.org/2000/svg" xmlns:xlink="http://www.w3.org/1999/xlink" id="Layer_1" data-name="Layer 1" viewBox="0 0 512 512" width="512" height="512"><defs><linearGradient id="linear-gradient" x1="108.77" y1="488" x2="108.77" y2="29.045" gradientUnits="userSpaceOnUse"><stop offset="0.322" stop-color="#a163f5"/><stop offset="0.466" stop-color="#b074ee"/><stop offset="0.752" stop-color="#d8a1dd"/><stop offset="0.898" stop-color="#efbad3"/></linearGradient><linearGradient id="linear-gradient-2" x1="203.293" y1="488" x2="203.293" y2="29.045" xlink:href="#linear-gradient"/><linearGradient id="linear-gradient-7" x1="311.573" y1="488" x2="311.573" y2="29.045" xlink:href="#linear-gradient"/><linearGradient id="linear-gradient-8" x1="256" y1="488" x2="256" y2="29.045" xlink:href="#linear-gradient"/><linearGradient id="linear-gradient-9" x1="367.074" y1="488" x2="367.074" y2="29.045" xlink:href="#linear-gradient"/><linearGradient id="linear-gradient-10" x1="391.108" y1="488" x2="391.108" y2="29.045" xlink:href="#linear-gradient"/></defs><title>buliding office map</title><path d="M125.441,152.331H92.1a6,6,0,0,0-6,6v44.458a6,6,0,0,0,6,6h33.343a6,6,0,0,0,6-6V158.331A6,6,0,0,0,125.441,152.331Zm-6,44.458H98.1V164.331h21.343Z" style="fill:url(#linear-gradient)"/><path d="M186.621,208.789h33.344a6,6,0,0,0,6-6V158.331a6,6,0,0,0-6-6H186.621a6,6,0,0,0-6,6v44.458A6,6,0,0,0,186.621,208.789Zm6-44.458h21.344v32.458H192.621Z" style="fill:url(#linear-gradient-2)"/><path d="M125.441,232.355H92.1a6,6,0,0,0-6,6v44.458a6,6,0,0,0,6,6h33.343a6,6,0,0,0,6-6V238.355A6,6,0,0,0,125.441,232.355Zm-6,44.458H98.1V244.355h21.343Z" style="fill:url(#linear-gradient)"/><path d="M186.621,288.813h33.344a6,6,0,0,0,6-6V238.355a6,6,0,0,0-6-6H186.621a6,6,0,0,0-6,6v44.458A6,6,0,0,0,186.621,288.813Zm6-44.458h21.344v32.458H192.621Z" style="fill:url(#linear-gradient-2)"/><path d="M125.441,312.381H92.1a6,6,0,0,0-6,6v44.458a6,6,0,0,0,6,6h33.343a6,6,0,0,0,6-6V318.381A6,6,0,0,0,125.441,312.381Zm-6,44.458H98.1V324.381h21.343Z" style="fill:url(#linear-gradient)"/><path d="M186.621,368.839h33.344a6,6,0,0,0,6-6V318.381a6,6,0,0,0-6-6H186.621a6,6,0,0,0-6,6v44.458A6,6,0,0,0,186.621,368.839Zm6-44.458h21.344v32.458H192.621Z" style="fill:url(#linear-gradient-2)"/><path d="M294.9,287.286h33.344a6,6,0,0,0,6-6V236.827a6,6,0,0,0-6-6H294.9a6,6,0,0,0-6,6v44.459A6,6,0,0,0,294.9,287.286Zm6-44.459h21.344v32.459H300.9Z" style="fill:url(#linear-gradient-7)"/><path d="M373.083,299.238V197.231a6,6,0,0,0-6-6H262.062V104.147a6,6,0,0,0-2.4-4.8L159.631,24.324a6,6,0,0,0-7.2,0L52.4,99.348a6,6,0,0,0-2.4,4.8V398.684a6,6,0,0,0,6,6H272.776A94.916,94.916,0,1,0,373.083,299.238ZM250.062,392.684H62V107.147l94.031-70.523,94.031,70.523ZM361.083,203.231v96.007a95.032,95.032,0,0,0-88.9,93.446H262.062V203.231Zm6,273.645A82.917,82.917,0,1,1,450,393.96,83.01,83.01,0,0,1,367.083,476.876Z" style="fill:url(#linear-gradient-8)"/><path d="M411.187,349.855a40.618,40.618,0,0,0-61.37,52.886l-36.976,36.977a6,6,0,1,0,8.484,8.484L358.3,411.226a40.618,40.618,0,0,0,52.886-61.37ZM402.7,398.813a28.6,28.6,0,1,1,0-40.472A28.652,28.652,0,0,1,402.7,398.813Z" style="fill:url(#linear-gradient-9)"/><path d="M398.188,374.228a6,6,0,0,0-6.675,5.239,8.55,8.55,0,0,1-7.485,7.483,6,6,0,1,0,1.436,11.914A20.521,20.521,0,0,0,403.427,380.9,6,6,0,0,0,398.188,374.228Z" style="fill:url(#linear-gradient-10)"/></svg>
