<svg xmlns="http://www.w3.org/2000/svg" xmlns:xlink="http://www.w3.org/1999/xlink" width="43" height="43" viewBox="0 0 43 43">
    <defs>
        <path id="cm8rh8cl1a" d="M0 12.931L5.865 12.931 5.865 24.95 0 24.95z"/>
    </defs>
    <g fill="none" fill-rule="evenodd">
        <g>
            <g>
                <g transform="translate(-77 -858) translate(15 810) translate(62 48)">
                    <circle cx="21.5" cy="21.5" r="21.5" fill="#4ABC4E"/>
                    <g transform="translate(11 7)">
                        <path fill="#FFF" d="M13.364 24.234c-1.716 0-3.434.03-5.148-.022-.415-.013-.87-.226-1.214-.481-.22-.163-.378-.573-.38-.874-.027-3.155-.013-6.311-.022-9.467-.001-.372.1-.623.442-.764.606-.25 1.033-.72 1.366-1.29.544-.927 1.029-1.897 1.633-2.779.55-.8 1.182-1.554 1.855-2.246 1.232-1.27 2.14-2.694 2.389-4.528.056-.419.183-.863.398-1.213.435-.707 1.215-.756 1.776-.149.635.686.862 1.568.938 2.482.152 1.84-.606 3.375-1.536 4.855-.238.379-.417.825-.515 1.266-.11.49.18.74.652.743.936.005 1.873-.008 2.808.02.43.012.872.049 1.285.165 1.86.523 2.502 2.597 1.291 4.16-.177.23-.179.361-.02.6.745 1.128.626 2.217-.353 3.155-.232.222-.222.376-.095.643.483 1.018.323 1.755-.472 2.536-.113.111-.196.38-.15.526.507 1.558-.195 2.64-1.78 2.657-1.716.02-3.432.005-5.148.005"/>
                        <mask id="sio3ibkqpb" fill="#fff">
                            <use xlink:href="#cm8rh8cl1a"/>
                        </mask>
                        <path fill="#FFF" d="M3 22.625c.13.103.291.326.488.365.3.06.505-.16.512-.478.006-.293-.155-.493-.454-.51-.323-.02-.477.183-.546.623m1.998-4.104c0 1.472.005 2.944-.002 4.415-.003.81-.284 1.06-1.17 1.061-1.255.003-2.509.005-3.763-.001-.783-.004-1.06-.249-1.06-.94-.004-3.041-.004-6.083 0-9.125.002-.687.259-.923 1.007-.926 1.308-.007 2.617-.007 3.925 0 .767.003 1.053.251 1.058.953.013 1.521.004 3.042.005 4.563" mask="url(#sio3ibkqpb)"/>
                    </g>
                </g>
            </g>
        </g>
    </g>
</svg>
