<svg xmlns="http://www.w3.org/2000/svg" xmlns:xlink="http://www.w3.org/1999/xlink" width="43" height="43" viewBox="0 0 43 43">
    <defs>
        <path id="dnt4pwpfza" d="M17 0L23 0 23 12 17 12z"/>
    </defs>
    <g fill="none" fill-rule="evenodd">
        <g>
            <g>
                <g>
                    <g fill="#D0021B" transform="translate(-218 -858) translate(15 810) translate(203 48)">
                        <circle cx="21.5" cy="21.5" r="21.5"/>
                    </g>
                    <g transform="translate(-218 -858) translate(15 810) translate(203 48) translate(10 9)">
                        <path fill="#FFF" d="M.822 10.796c-.217-.46-.474-.828-.567-1.235-.199-.87.04-1.645.748-2.227.225-.184.313-.315.157-.618-.543-1.058-.409-1.752.477-2.543.235-.21.244-.368.13-.642-.5-1.198.104-2.27 1.38-2.481.23-.038.467-.046.7-.047 3.462-.002 6.923-.009 10.384.01.363.001.757.093 1.081.253.454.223.693.598.688 1.172-.027 3.074-.02 6.149-.004 9.224.003.432-.147.654-.522.886-.475.293-.945.674-1.265 1.125-.633.894-1.11 1.896-1.747 2.787-.568.797-1.212 1.556-1.914 2.239-1.33 1.293-2.32 2.738-2.553 4.624-.038.315-.126.643-.274.921-.488.918-1.503 1.027-2.096.179-.341-.487-.59-1.08-.724-1.66-.479-2.068.402-3.787 1.491-5.448.239-.363.452-.783.527-1.203.103-.574-.13-.779-.729-.793-1.063-.025-2.128-.008-3.19-.063-.494-.025-1.017-.095-1.467-.287-1.577-.674-2.012-2.52-.955-3.868.088-.113.179-.224.244-.305"/>
                        <mask id="evta24r0bb" fill="#fff">
                            <use xlink:href="#dnt4pwpfza"/>
                        </mask>
                        <path fill="#FFF" d="M18.489 3c.314-.028.507-.192.51-.496.005-.301-.177-.5-.49-.504-.313-.004-.5.187-.509.489-.008.307.184.471.489.511m4.51 3.532c0 1.507.003 3.015-.002 4.522-.002.722-.244.939-1.045.942-1.296.005-2.592.005-3.888 0-.758-.002-1.053-.234-1.055-.903-.012-3.08-.011-6.16-.001-9.24.002-.579.312-.841.953-.846 1.369-.009 2.738-.01 4.107.001.646.005.925.267.928.855.007 1.556.002 3.113.002 4.67" mask="url(#evta24r0bb)"/>
                    </g>
                </g>
            </g>
        </g>
    </g>
</svg>
