<?xml version="1.0" encoding="UTF-8"?>
<svg width="22px" height="22px" viewBox="0 0 22 22" version="1.1" xmlns="http://www.w3.org/2000/svg" xmlns:xlink="http://www.w3.org/1999/xlink">
    <title>Group 6</title>
    <defs>
        <polygon id="path-1" points="0 0 22 0 22 8 0 8"></polygon>
    </defs>
    <g id="Dispatch" stroke="none" stroke-width="1" fill="none" fill-rule="evenodd">
        <g id="Geofencing" transform="translate(-1277.000000, -1438.000000)">
            <g id="Group-6" transform="translate(1277.000000, 1438.000000)">
                <path d="M13.2987585,5.50169919 C13.3464582,4.63700382 12.5011141,3.73037172 11.6087328,3.68910066 C10.6222772,3.64383562 9.75374577,4.43597379 9.69875865,5.43180465 C9.64708401,6.35840661 10.4487034,7.27568931 11.3748719,7.31762604 C12.368615,7.36155975 13.2709337,6.61734926 13.2987585,5.50169919 L13.2987585,5.50169919 Z M12.1692039,0 C12.6004884,0.119153558 13.0403853,0.212346285 13.4604074,0.363451634 C14.7191486,0.815436359 15.6466421,1.66948113 16.3078125,2.82373962 C16.8921334,3.84220299 17.0941945,4.95985005 16.9603704,6.10612059 C16.8570211,6.99012017 16.6529726,7.87079144 16.4078493,8.72883019 C15.8281658,10.7610973 14.9364471,12.6708825 13.9731788,14.5413937 C13.2093216,16.023158 12.371265,17.466314 11.5265834,19 C11.2648977,18.5639912 11.0482617,18.2065305 10.8356007,17.8470728 C9.49338509,15.5811583 8.28234355,13.2486774 7.29191297,10.805031 C6.77516658,9.5309533 6.34189461,8.22292681 6.1139962,6.8676383 C5.81189831,5.06768735 6.07755896,3.36958273 7.30582537,1.93175209 C8.02529535,1.08902358 8.91436413,0.492590127 9.98959412,0.199033038 C10.2671797,0.123147532 10.5494027,0.0659005711 10.8296383,0 L12.1692039,0 Z" id="Fill-1" fill="#989798"></path>
                <g id="Group-5" transform="translate(0.000000, 14.000000)">
                    <mask id="mask-2" fill="white">
                        <use xlink:href="#path-1"></use>
                    </mask>
                    <g id="Clip-4"></g>
                    <path d="M5.66586208,0 C5.78282257,0.605170533 5.88028965,1.10761839 5.9791011,1.61750992 C5.30556998,1.80434609 4.65086009,1.95917447 4.0116105,2.17057475 C3.22851294,2.42887017 2.45549818,2.72885015 1.79944392,3.30052416 C1.74298023,3.3496524 1.68651654,3.40026937 1.6381191,3.45758564 C1.37394971,3.7717086 1.34840661,3.96301097 1.66030126,4.21684019 C2.06831862,4.54808359 2.50658437,4.85699598 2.97039323,5.07509557 C4.21729964,5.66165692 5.54352409,5.92367417 6.87781478,6.13730756 C8.89639158,6.46036293 10.9277399,6.49534818 12.9550551,6.37178323 C14.8795258,6.25417321 16.7992911,5.99364469 18.623606,5.24332255 C19.1916038,5.01033562 19.7313697,4.67090418 20.2496257,4.31881849 C20.6731034,4.03074839 20.6468881,3.66824156 20.2570198,3.31020094 C19.6110483,2.71545154 18.8366892,2.4214265 18.0502307,2.17131912 C17.3982095,1.96364067 16.7320725,1.80955666 16.028293,1.61974303 C16.1217269,1.11357333 16.2158331,0.601448697 16.3112836,0.085602228 C17.8505912,0.419078733 19.343518,0.786051763 20.6811696,1.67110436 C21.229674,2.03435556 21.6894497,2.50181816 21.9018607,3.18886908 C22.1693911,4.05456814 21.8790064,4.93738763 21.1711937,5.56191172 C20.3726359,6.26757182 19.4430016,6.67176321 18.4817746,6.98886364 C17.191176,7.41538604 15.8669681,7.69898995 14.5272999,7.8180887 C13.1432674,7.94165365 11.7511687,7.99301499 10.3624309,7.99971429 C8.26453604,8.01013543 6.19016774,7.73546394 4.15075315,7.17718854 C3.10617495,6.89135153 2.09386171,6.50874679 1.18439305,5.84998182 C0.713862324,5.50831728 0.305844969,5.09519348 0.110238626,4.49225605 C-0.162669192,3.64963238 0.071251795,2.74299313 0.798557854,2.14749937 C1.31076415,1.72842064 1.87271227,1.34060533 2.46558098,1.09719725 C3.50007638,0.670674847 4.57557518,0.366228662 5.66586208,0" id="Fill-3" fill="#989798" mask="url(#mask-2)"></path>
                </g>
            </g>
        </g>
    </g>
</svg>
