<svg xmlns="http://www.w3.org/2000/svg" width="17" height="15" viewBox="0 0 17 15">
    <path fill="#BEBFC0" fill-rule="evenodd" d="M9.183 6.025a2.272 2.272 0 0 0-.683-.104c-1.28 0-2.318 1.06-2.318 2.368 0 1.309 1.038 2.369 2.318 2.369s2.318-1.06 2.318-2.369c0-.242-.036-.476-.102-.697a1.158 1.158 0 0 1-1.057.697c-.64 0-1.159-.53-1.159-1.184 0-.48.28-.894.683-1.08zM3.709 2.368L4.35.733C4.508.328 4.983 0 5.406 0h6.188c.425 0 .899.33 1.057.733l.64 1.635h2.163c.854 0 1.546.707 1.546 1.581v9.47c0 .873-.693 1.581-1.546 1.581H1.546C.692 15 0 14.294 0 13.42V3.948c0-.873.693-1.58 1.546-1.58H3.71zm-2.163 1.58v9.471l13.908.002V3.95c0-.002-2.816-.002-2.816-.002a.613.613 0 0 1-.54-.37l-.786-1.998h-5.63L4.9 3.577a.62.62 0 0 1-.538.37H1.546zm3.09 4.341c0-2.18 1.73-3.947 3.864-3.947s3.864 1.767 3.864 3.947-1.73 3.948-3.864 3.948-3.864-1.767-3.864-3.948z"/>
</svg>
