<svg xmlns="http://www.w3.org/2000/svg" xmlns:xlink="http://www.w3.org/1999/xlink" width="19" height="17" viewBox="0 0 19 17">
    <defs>
        <path id="r44urk421a" d="M0 0.237L8.864 0.237 8.864 16 0 16z"/>
    </defs>
    <g fill="none" fill-rule="evenodd">
        <g>
            <g>
                <g>
                    <g transform="translate(-1285 -945) translate(1276 939) translate(9 6) translate(0 1)">
                        <mask id="ake5y7gf7b" fill="#fff">
                            <use xlink:href="#r44urk421a"/>
                        </mask>
                        <path fill="#AAA" d="M0 11.188l1.616-1.735c.51.586 1.024 1.18 1.54 1.772l.124-.067c.008-.141.022-.283.023-.424 0-3.336.005-6.673-.007-10.009-.001-.359.08-.509.439-.486.475.03.955.022 1.431.002.3-.012.385.107.384.42-.009 3.299-.005 6.597-.005 9.895v.638c.572-.62 1.107-1.203 1.715-1.864.587.655 1.09 1.209 1.58 1.777.042.05.028.23-.022.283-1.442 1.54-2.893 3.07-4.342 4.602-.008.008-.022.006-.027.008L0 11.188" mask="url(#ake5y7gf7b)"/>
                    </g>
                    <path fill="#AAA" d="M10.003 4.855L14.53 0c.06.052.145.114.218.192 1.362 1.46 2.718 2.925 4.087 4.377.211.224.225.365.002.586-.399.393-.78.806-1.149 1.232-.198.229-.335.259-.546.013-.374-.437-.776-.846-1.169-1.265-.08-.086-.17-.162-.33-.313v.546l.003 10.11c0 .511-.003.513-.47.514-.47.002-.94-.018-1.408.007-.306.015-.39-.106-.39-.422.01-2.415.005-4.83.004-7.243v-3.1c0-.096-.016-.194-.034-.398l-1.24 1.33c-.111.12-.21.256-.338.348-.065.047-.221.055-.268.006-.507-.532-1-1.078-1.496-1.623-.012-.013-.005-.048-.004-.042" transform="translate(-1285 -945) translate(1276 939) translate(9 6)"/>
                </g>
            </g>
        </g>
    </g>
</svg>
