<svg xmlns="http://www.w3.org/2000/svg" xmlns:xlink="http://www.w3.org/1999/xlink" width="19" height="19" viewBox="0 0 19 19">
    <defs>
        <path id="a" d="M0 .047h17.954v18.34H0z"/>
        <path id="c" d="M0 .034h8.976v8.934H0z"/>
    </defs>
    <g fill="none" fill-rule="evenodd">
        <g transform="translate(0)">
            <mask id="b" fill="#fff">
                <use xlink:href="#a"/>
            </mask>
            <path fill="#9B9B9B" d="M5.268 4.265c.001-.662-.49-1.17-1.133-1.172a1.132 1.132 0 0 0-1.153 1.151c-.004.677.487 1.185 1.144 1.185.646 0 1.141-.505 1.142-1.164M7.5.047c.074.09.142.188.223.271 3.246 3.318 6.494 6.633 9.74 9.951.653.668.656 1.563.003 2.233-1.758 1.802-3.52 3.601-5.284 5.397-.645.656-1.522.648-2.169-.008-.516-.522-1.02-1.055-1.545-1.568-.155-.152-.156-.26-.06-.444.838-1.613.866-3.251-.003-4.843-.912-1.669-2.347-2.527-4.228-2.58a4.581 4.581 0 0 0-2.482.651c-.146.085-.229.068-.339-.052-.228-.25-.469-.49-.71-.73-.212-.209-.43-.411-.646-.617V1.436c.013-.02.034-.038.039-.059C.18.649.603.215 1.322.087c.03-.005.056-.026.084-.04H7.5z" mask="url(#b)"/>
        </g>
        <g transform="translate(0 9)">
            <mask id="d" fill="#fff">
                <use xlink:href="#c"/>
            </mask>
            <path fill="#297EC9" d="M6.156 4.929h.639c.604 0 .597 0 .593-.615-.001-.19-.06-.25-.249-.248-.647.01-1.294-.001-1.941.007-.197.002-.275-.063-.271-.266.009-.536.003-1.072.003-1.609 0-.592 0-.582-.596-.588-.22-.002-.27.079-.267.282.01.63-.004 1.26.008 1.89.004.228-.08.297-.299.291-.519-.011-1.039-.003-1.558-.003-.621 0-.615 0-.606.628.003.177.059.236.236.234.647-.008 1.294.003 1.941-.007.209-.003.29.064.285.279-.011.536-.004 1.073-.004 1.61 0 .576 0 .565.583.575.235.004.285-.08.28-.295-.011-.622.006-1.244-.008-1.865-.005-.24.08-.316.312-.304.305.016.613.004.92.004zM0 4.244c.038-.19.077-.38.113-.57C.483 1.703 2.082.26 4.082.056c2.283-.233 4.453 1.366 4.84 3.768.388 2.41-1.357 4.767-3.772 5.1A4.49 4.49 0 0 1 .077 5.176c-.022-.14-.051-.28-.077-.421v-.511z" mask="url(#d)"/>
        </g>
        <path fill="#FFF" d="M4 4.008C3.998 5.136 3.132 5.999 2.002 6 .853 6-.006 5.13 0 3.971.006 2.85.878 1.996 2.018 2c1.125.004 1.984.873 1.982 2.008"/>
    </g>
</svg>
