<svg xmlns="http://www.w3.org/2000/svg" width="15" height="15" viewBox="0 0 15 15">
    <path fill="#BEBFC0" fill-rule="evenodd" d="M12.081 8.204a.755.755 0 1 1 1.51 0v5.283A1.51 1.51 0 0 1 12.081 15H1.51A1.51 1.51 0 0 1 0 13.489V2.918c0-.836.677-1.511 1.514-1.511h5.293a.755.755 0 0 1 0 1.51H1.51V13.49c0 .002 0 0 0 0h10.57c.002 0 .001.001.001-.002V8.204zM13.488.44l1.07 1.07c.59.589.59 1.544-.002 2.136l-7.474 7.475-2.81.705c-.81.203-1.3-.291-1.098-1.098l.705-2.811L11.353.443c.59-.59 1.548-.59 2.135-.002zM6.815 9.253L5.748 8.185l-.505.505-.355 1.422 1.416-.347.511-.512zm5.072-5.072l-1.068-1.07-4.003 4.006 1.067 1.068 4.004-4.004z"/>
</svg>
