<svg xmlns="http://www.w3.org/2000/svg" width="14" height="15" viewBox="0 0 14 15">
    <path fill="#BEBFC0" fill-rule="evenodd" d="M1.33 1.304c.003 0 .003 10.435.003 10.435h2.951A4.788 4.788 0 0 1 4 10.109c0-1.812 1.007-3.394 2.504-4.24h-1.17a.66.66 0 0 1-.667-.652V1.304H1.33zm4.67 0l3.333 3.261H6v-3.26zm3.667 8.878V8.48A.661.661 0 0 0 9 7.826a.66.66 0 0 0-.667.655v1.683l-.528-.516a.677.677 0 0 0-.943 0 .642.642 0 0 0 0 .922l1.667 1.63c.26.255.682.255.942 0l1.667-1.63a.642.642 0 0 0 0-.922.677.677 0 0 0-.943 0l-.528.534zm1-5.813a.897.897 0 0 0-.234-.555L6.769.23A.936.936 0 0 0 6.202 0H1.33C.597 0 0 .584 0 1.304V11.74c0 .719.598 1.304 1.335 1.304H5A5.03 5.03 0 0 0 9 15c2.761 0 5-2.19 5-4.891 0-2.13-1.391-3.942-3.333-4.613V4.369zM9 13.696c2.025 0 3.667-1.606 3.667-3.587S11.025 6.522 9 6.522s-3.667 1.606-3.667 3.587c0 1.98 1.642 3.587 3.667 3.587z"/>
</svg>
