<svg xmlns="http://www.w3.org/2000/svg" width="31" height="28" viewBox="0 0 31 28">
    <path fill="#AAA" fill-rule="evenodd" d="M3.23 0C1.45 0 0 1.366 0 3.043V18.87c0 1.677 1.45 3.043 3.23 3.043h13.808l3.051 5.751c.11.206.334.336.578.336.244 0 .467-.13.577-.336l3.051-5.751h3.476c1.78 0 3.229-1.366 3.229-3.043V3.043C31 1.366 29.55 0 27.77 0H3.23zm23.2 18.897h-3.193c-.198 0-.384.1-.473.258L20.616 23l-2.149-3.844a.52.52 0 0 0-.46-.26H4.57c-.866 0-1.57-.63-1.57-1.404V4.405C3 3.63 3.704 3 4.57 3h21.86c.866 0 1.57.63 1.57 1.405v13.087c0 .775-.704 1.405-1.57 1.405z"/>
</svg>
