<svg xmlns="http://www.w3.org/2000/svg" width="25" height="25" viewBox="0 0 25 25">
    <g fill="none" fill-rule="evenodd">
        <path fill="#B7B2F5" d="M16.313 19.468c.26 0 .526.04.776-.008.527-.101 1.16.007 1.499-.549.313-.515.605-1.053.826-1.613.197-.495.045-.926-.453-1.225-.601-.361-1.177-.765-1.765-1.148-1.436-.935-1.447-.933-2.446.44-.478.659-.764.767-1.506.429-1.82-.83-3.158-2.166-3.999-3.978-.38-.82-.256-1.171.458-1.705.207-.154.418-.305.614-.474.454-.393.499-.698.175-1.206-.418-.654-.846-1.301-1.268-1.952-.713-1.1-1.09-1.21-2.267-.615a4.22 4.22 0 0 0-.916.613c-.18.162-.374.425-.378.646-.02 1.08-.137 2.194.074 3.237.574 2.84 2.255 5.02 4.494 6.778 1.778 1.397 3.766 2.31 6.082 2.33M12 0h1c.524.08 1.047.163 1.571.242 4.874.736 9.066 4.701 10.064 9.535.151.735.245 1.482.365 2.223v1c-.08.506-.16 1.011-.238 1.517-.77 4.985-4.688 9.124-9.597 10.122-.716.146-1.443.242-2.165.361h-1c-.524-.08-1.047-.163-1.571-.242-4.87-.733-9.066-4.702-10.064-9.536C.214 14.488.12 13.742 0 13v-1c.08-.506.16-1.012.238-1.518C1.007 5.5 4.927 1.358 9.835.361 10.55.215 11.278.119 12 0"/>
        <path fill="#FEFEFE" d="M16.79 18.984c-2.336-.02-4.34-.935-6.134-2.334-2.257-1.76-3.952-3.944-4.531-6.788-.213-1.045-.094-2.16-.074-3.242.004-.222.199-.485.38-.647.273-.245.595-.449.925-.615 1.185-.596 1.566-.485 2.285.616.426.652.857 1.3 1.278 1.955.327.51.282.815-.176 1.208-.197.17-.41.32-.62.475-.72.535-.844.887-.46 1.708.847 1.815 2.197 3.153 4.031 3.984.748.338 1.037.23 1.52-.429 1.006-1.375 1.017-1.378 2.465-.441.593.384 1.174.788 1.78 1.15.502.299.655.73.457 1.227-.223.56-.517 1.1-.833 1.615-.342.557-.98.448-1.512.55-.252.048-.52.008-.782.008"/>
    </g>
</svg>
