<?xml version="1.0" encoding="iso-8859-1"?>
<!-- Generator: Adobe Illustrator 19.0.0, SVG Export Plug-In . SVG Version: 6.00 Build 0)  -->
<svg version="1.1" id="Capa_1" xmlns="http://www.w3.org/2000/svg" xmlns:xlink="http://www.w3.org/1999/xlink" x="0px" y="0px"
	 viewBox="0 0 512 512" style="enable-background:new 0 0 512 512;" xml:space="preserve">
<g>
	<g>
		<rect x="156" y="432" width="60" height="30"/>
	</g>
</g>
<g>
	<g>
		<path d="M434.757,38.758C409.185,16.839,376.332,3.559,341,0.623V0H31v512h310V269.377c35.332-2.936,68.185-16.217,93.757-38.136
			C464.577,205.682,481,171.502,481,135S464.577,64.318,434.757,38.758z M61,30h167.493c-3.886,2.745-7.641,5.665-11.25,8.758
			c-7.641,6.549-14.395,13.667-20.225,21.242H61V30z M311,482H61v-70h250V482z M311,382H61V90h118.759
			c-5.754,14.25-8.759,29.412-8.759,45c0,36.502,16.423,70.682,46.243,96.242c5.344,4.581,11.008,8.78,16.944,12.59
			c-10.961,16.515-23.776,31.695-38.187,45.198c31.437-2.601,61.245-10.931,88.395-23.924c8.652,2.084,17.546,3.519,26.605,4.272
			V382z M326,240c-68.925,0-125-47.103-125-105c0-57.897,56.075-105,125-105s125,47.103,125,105C451,192.897,394.925,240,326,240z"
			/>
	</g>
</g>
<g>
	<g>
		<circle cx="326" cy="135" r="20"/>
	</g>
</g>
<g>
	<g>
		<circle cx="256" cy="135" r="20"/>
	</g>
</g>
<g>
	<g>
		<circle cx="396" cy="135" r="20"/>
	</g>
</g>
<g>
</g>
<g>
</g>
<g>
</g>
<g>
</g>
<g>
</g>
<g>
</g>
<g>
</g>
<g>
</g>
<g>
</g>
<g>
</g>
<g>
</g>
<g>
</g>
<g>
</g>
<g>
</g>
<g>
</g>
</svg>
