<?xml version="1.0"?>
<svg xmlns="http://www.w3.org/2000/svg" xmlns:xlink="http://www.w3.org/1999/xlink" id="Layer_1" data-name="Layer 1" viewBox="0 0 512 512" width="512" height="512"><defs><linearGradient id="linear-gradient" x1="256" y1="478" x2="256" y2="25.558" gradientUnits="userSpaceOnUse"><stop offset="0.322" stop-color="#a163f5"/><stop offset="0.466" stop-color="#b074ee"/><stop offset="0.752" stop-color="#d8a1dd"/><stop offset="0.898" stop-color="#efbad3"/></linearGradient><linearGradient id="linear-gradient-2" x1="353.5" y1="478" x2="353.5" y2="25.558" xlink:href="#linear-gradient"/><linearGradient id="linear-gradient-3" x1="389.82" y1="478" x2="389.82" y2="25.558" xlink:href="#linear-gradient"/></defs><title>pin pointer home</title><path d="M354.833,253.75V207.373L384.9,229.922a6,6,0,0,0,9.6-4.8V159.767a6,6,0,0,0-2.4-4.8l-170-127.5a6,6,0,0,0-7.2,0l-170,127.5a6,6,0,0,0-2.4,4.8v65.356a6,6,0,0,0,9.6,4.8l30.067-22.549V363.2a6,6,0,0,0,6,6h149.34c0,.178-.007.355-.007.533A116,116,0,1,0,354.833,253.75ZM54.5,162.767l164-123,164,123v50.356L222.1,92.823a6,6,0,0,0-7.2,0L54.5,213.123ZM94.167,357.2V198.373L218.5,105.123l124.333,93.25v55.856A116.2,116.2,0,0,0,238.179,357.2ZM353.5,473.733a104,104,0,1,1,104-104A104.118,104.118,0,0,1,353.5,473.733Z" style="fill:url(#linear-gradient)"/><path d="M373.435,298.932a50.858,50.858,0,0,0-39.951,82.332l-49.028,49.028a6,6,0,1,0,8.485,8.485l49.028-49.027a50.861,50.861,0,1,0,31.466-90.818Zm27.482,78.348A38.864,38.864,0,1,1,412.3,349.8,38.608,38.608,0,0,1,400.917,377.28Z" style="fill:url(#linear-gradient-2)"/><path d="M392.108,356.347a12.852,12.852,0,0,1-11.25,11.25,6,6,0,0,0,.71,11.957,6.116,6.116,0,0,0,.725-.043,24.825,24.825,0,0,0,21.729-21.73,6,6,0,1,0-11.914-1.434Z" style="fill:url(#linear-gradient-3)"/></svg>
