<?xml version="1.0"?>
<svg xmlns="http://www.w3.org/2000/svg" id="Layer_1" data-name="Layer 1" viewBox="0 0 512 512" width="512" height="512"><title>Home map location pin</title><polygon points="74.5 162.767 228.5 47.267 218.5 39.767 54.5 162.767 54.5 213.123 74.5 198.123 74.5 162.767" style="fill:#d4e1f4"/><polygon points="228.5 112.623 218.5 105.123 94.167 198.373 94.167 357.2 114.167 357.2 114.167 198.373 228.5 112.623" style="fill:#d4e1f4"/><path d="M269.5,369.733a104.143,104.143,0,0,1,94-103.517c-3.292-.315-6.626-.483-10-.483a104,104,0,0,0,0,208c3.374,0,6.708-.167,10-.483A104.141,104.141,0,0,1,269.5,369.733Z" style="fill:#d4e1f4"/><path d="M82.167,363.2a6,6,0,0,0,6,6H243.7v-12H94.167V198.373L218.5,105.123l124.333,93.25v61.464h12V207.373L384.9,229.922a6,6,0,0,0,9.6-4.8V159.767a6,6,0,0,0-2.4-4.8l-170-127.5a6,6,0,0,0-7.2,0l-170,127.5a6,6,0,0,0-2.4,4.8v65.356a6,6,0,0,0,9.6,4.8l30.067-22.549ZM54.5,162.767l164-123,164,123v50.356L222.1,92.823a6,6,0,0,0-7.2,0L54.5,213.123Z" style="fill:#0635c9"/><path d="M353.5,253.733a116,116,0,1,0,116,116A116.132,116.132,0,0,0,353.5,253.733Zm0,220a104,104,0,1,1,104-104A104.118,104.118,0,0,1,353.5,473.733Z" style="fill:#1ae5be"/><path d="M353.5,314.389c-19.178,0-34.78,15.949-34.78,35.554s15.6,35.553,34.78,35.553,34.78-15.949,34.78-35.553S372.678,314.389,353.5,314.389Zm0,59.107c-12.561,0-22.78-10.566-22.78-23.553s10.219-23.554,22.78-23.554,22.78,10.567,22.78,23.554S366.061,373.5,353.5,373.5Z" style="fill:#1ae5be"/><path d="M404.452,301.524a71.946,71.946,0,0,0-101.9,0A76.351,76.351,0,0,0,280.5,350.348a72.128,72.128,0,0,0,4.352,29.694,77.434,77.434,0,0,0,16.611,26.392L349.125,457.2a6,6,0,0,0,8.75,0l47.662-50.767a77.453,77.453,0,0,0,16.612-26.392,72.144,72.144,0,0,0,4.351-29.694A76.351,76.351,0,0,0,404.452,301.524Zm6.424,74.4a65.55,65.55,0,0,1-14.088,22.291L353.5,444.328,310.212,398.22a65.531,65.531,0,0,1-14.087-22.291,60.184,60.184,0,0,1-3.651-24.78,64.348,64.348,0,0,1,18.575-41.155,59.945,59.945,0,0,1,84.9,0,64.348,64.348,0,0,1,18.575,41.155A60.2,60.2,0,0,1,410.876,375.929Z" style="fill:#1ae5be"/></svg>
