<svg xmlns="http://www.w3.org/2000/svg" width="27" height="19" viewBox="0 0 27 19">
    <g fill="none" fill-rule="evenodd">
        <path stroke="#5A5A5A" stroke-linecap="round" d="M9.559 5.494C7.47-1.822-1.982 11.231.374 16.726c.451 1.051 1.741.811 2.6.562 1.655-.48 3.007-2.584 4.696-2.677.635-.036.292 1.998.869 2.37.599.385 1.293-.76 1.938-.562.35.107.177 1.171.52 1.316 1.285.54 2.669.39 4.003.586" transform="translate(1 -.321)"/>
        <path fill="#4A4A4A" d="M25.462.725c.484.23.677.784.431 1.235l-.675 1.236c.283.274.373.689.178 1.046l-.322.589.31.147c.494.234.69.799.439 1.259L23.98 9.609c-.042.075-.111.127-.191.151-.08.025-.17.02-.25-.018-.161-.076-.225-.26-.143-.41l1.842-3.372c.042-.078.05-.165.02-.248-.028-.083-.09-.15-.173-.19l-.31-.147-6.146 11.248c-.004.007-.01.011-.015.018-.011.017-.026.033-.041.048-.015.016-.03.03-.048.041-.007.005-.011.012-.018.016l-2.735 1.532c-.021.012-.044.022-.067.029-.082.024-.172.018-.25-.019-.1-.047-.168-.14-.177-.245L15 15.079c0-.008.003-.015.003-.023 0-.021.003-.04.007-.062.004-.02.01-.038.017-.056.004-.008.003-.017.007-.024l6.764-12.38c.195-.358.608-.534 1.012-.481l.675-1.236c.237-.436.86-.624 1.325-.402l.652.31zm-9.758 14.85l.18 1.928 1.78-.997-1.96-.931zm2.492.499l5.997-10.976-2.43-1.155-5.996 10.976 2.43 1.155zm6.616-12.109c.082-.15.017-.335-.143-.411l-1.846-.877c-.16-.076-.358-.017-.44.133l-.322.59 2.43 1.154.32-.589zm.497-2.282c.081-.149.015-.338-.143-.414l-.652-.31c-.157-.073-.365-.01-.444.135l-.647 1.183 1.24.589.646-1.183z" transform="translate(1 -.321)"/>
    </g>
</svg>
