<?xml version="1.0"?>
<svg xmlns="http://www.w3.org/2000/svg" id="Layer_1" data-name="Layer 1" viewBox="0 0 512 512" width="512" height="512"><title>view map pin location</title><path d="M362.744,99.77A241.776,241.776,0,0,0,16.08,197.506a6.006,6.006,0,0,0,0,5.286,242.349,242.349,0,0,0,87.549,97.737,242.261,242.261,0,0,0,207.944,24.624,6,6,0,1,0-3.89-11.351A229.837,229.837,0,0,1,28.171,200.149a229.771,229.771,0,0,1,410.03,0,230.461,230.461,0,0,1-14.564,24.759,6,6,0,0,0,9.943,6.718,242.2,242.2,0,0,0,16.713-28.834,6.006,6.006,0,0,0,0-5.286A242.353,242.353,0,0,0,362.744,99.77Z" style="fill:#0635c9"/><path d="M192.019,156.5A58.929,58.929,0,1,0,291.4,186.251a6,6,0,0,0-10-3.148,20.457,20.457,0,0,1-28.5-29.35c.395-.395.847-.807,1.345-1.226a6,6,0,0,0-1.974-10.282A58.609,58.609,0,0,0,192.019,156.5Zm52.4,34.684a32.263,32.263,0,0,0,36.2,6.716,47.067,47.067,0,1,1-41.128-46.314A32.524,32.524,0,0,0,244.417,191.18Z" style="fill:#0635c9"/><path d="M142.5,200.149a92.011,92.011,0,1,0,92.011-92.011A92.115,92.115,0,0,0,142.5,200.149Zm172.022,0a80.011,80.011,0,1,1-80.011-80.011A80.1,80.1,0,0,1,314.521,200.149Z" style="fill:#0635c9"/><path d="M309.633,346.833a99.989,99.989,0,0,0,21.96,34.178L395.772,448a6,6,0,0,0,8.666,0l64.18-66.99a100.018,100.018,0,0,0,21.96-34.177,91.67,91.67,0,0,0,5.751-38.444,98.008,98.008,0,0,0-29.13-63.236,96.088,96.088,0,0,0-134.187,0,98,98,0,0,0-29.13,63.237A91.661,91.661,0,0,0,309.633,346.833Zm6.221-37.626a86.011,86.011,0,0,1,25.572-55.5,84.087,84.087,0,0,1,117.358,0,86.007,86.007,0,0,1,25.572,55.5,79.73,79.73,0,0,1-5.024,33.44,88.106,88.106,0,0,1-19.38,30.062l-59.847,62.468-59.847-62.468a88.1,88.1,0,0,1-19.379-30.063A79.74,79.74,0,0,1,315.854,309.207Z" style="fill:#1ae5be"/><path d="M400.105,363.3a55.566,55.566,0,1,0-55.256-55.565A55.474,55.474,0,0,0,400.105,363.3Zm0-99.131a43.567,43.567,0,1,1-43.256,43.566A43.461,43.461,0,0,1,400.105,264.17Z" style="fill:#1ae5be"/><path d="M140.069,300.4a230.366,230.366,0,0,1-81.9-90.255,229.959,229.959,0,0,1,262.6-118.7,229.808,229.808,0,0,0-292.6,108.7,230.366,230.366,0,0,0,81.9,90.255A228.4,228.4,0,0,0,175.6,318.85,228.553,228.553,0,0,1,140.069,300.4Z" style="fill:#d4e1f4"/><path d="M370.258,372.709a88.1,88.1,0,0,1-19.379-30.063,79.74,79.74,0,0,1-5.025-33.439,86.011,86.011,0,0,1,25.572-55.5,82.71,82.71,0,0,1,43.679-22.521,85.542,85.542,0,0,0-15-1.338,83.126,83.126,0,0,0-58.679,23.859,86.011,86.011,0,0,0-25.572,55.5,79.74,79.74,0,0,0,5.025,33.439,88.1,88.1,0,0,0,19.379,30.063l59.847,62.468,15-15.657Z" style="fill:#d4e1f4"/></svg>
