<?xml version="1.0"?>
<svg xmlns="http://www.w3.org/2000/svg" xmlns:xlink="http://www.w3.org/1999/xlink" id="Layer_1" data-name="Layer 1" viewBox="0 0 512 512" width="512" height="512"><defs><linearGradient id="linear-gradient" x1="233.705" y1="476.813" x2="233.705" y2="35.677" gradientUnits="userSpaceOnUse"><stop offset="0.322" stop-color="#a163f5"/><stop offset="0.466" stop-color="#b074ee"/><stop offset="0.752" stop-color="#d8a1dd"/><stop offset="0.898" stop-color="#efbad3"/></linearGradient><linearGradient id="linear-gradient-2" x1="234.51" y1="476.813" x2="234.51" y2="35.677" xlink:href="#linear-gradient"/><linearGradient id="linear-gradient-3" x1="256.001" y1="476.813" x2="256.001" y2="35.677" xlink:href="#linear-gradient"/><linearGradient id="linear-gradient-4" x1="400.105" y1="476.813" x2="400.105" y2="35.677" xlink:href="#linear-gradient"/></defs><title>view map pin location</title><path d="M291.4,186.251a6,6,0,0,0-10-3.148,20.457,20.457,0,0,1-28.5-29.35c.395-.395.847-.807,1.345-1.226a6,6,0,0,0-1.974-10.282A58.927,58.927,0,1,0,291.4,186.251Zm-24.528,45.1a47,47,0,1,1-27.38-79.768A32.49,32.49,0,0,0,280.621,197.9,46.8,46.8,0,0,1,266.873,231.35Z" style="fill:url(#linear-gradient)"/><path d="M326.521,200.149A92.011,92.011,0,1,0,234.51,292.16,92.115,92.115,0,0,0,326.521,200.149ZM234.51,280.16a80.011,80.011,0,1,1,80.011-80.011A80.1,80.1,0,0,1,234.51,280.16Z" style="fill:url(#linear-gradient-2)"/><path d="M467.2,245.154A94.747,94.747,0,0,0,437.641,225.4a242.232,242.232,0,0,0,12.652-22.609,6.006,6.006,0,0,0,0-5.286,241.776,241.776,0,0,0-434.213,0,6.006,6.006,0,0,0,0,5.286,242.349,242.349,0,0,0,87.549,97.737A242.219,242.219,0,0,0,304.623,327.4a94.876,94.876,0,0,0,5.01,19.429,99.989,99.989,0,0,0,21.96,34.178L395.772,448a6,6,0,0,0,8.666,0l64.18-66.99a100.018,100.018,0,0,0,21.96-34.177,91.67,91.67,0,0,0,5.751-38.444A98.008,98.008,0,0,0,467.2,245.154ZM110.069,290.4a230.366,230.366,0,0,1-81.9-90.255,229.771,229.771,0,0,1,410.03,0,230.423,230.423,0,0,1-12.232,21.189,96.974,96.974,0,0,0-25.864-3.487,95.055,95.055,0,0,0-67.093,27.3,98,98,0,0,0-29.13,63.237q-.23,3.366-.2,6.735A230.266,230.266,0,0,1,110.069,290.4Zm369.263,52.243a88.106,88.106,0,0,1-19.38,30.062l-59.847,62.468-59.847-62.468a88.1,88.1,0,0,1-19.379-30.063,79.74,79.74,0,0,1-5.025-33.439,86.011,86.011,0,0,1,25.572-55.5,84.087,84.087,0,0,1,117.358,0,86.007,86.007,0,0,1,25.572,55.5A79.73,79.73,0,0,1,479.332,342.647Z" style="fill:url(#linear-gradient-3)"/><path d="M400.105,252.17a55.566,55.566,0,1,0,55.257,55.566A55.475,55.475,0,0,0,400.105,252.17Zm0,99.131a43.567,43.567,0,1,1,43.257-43.565A43.461,43.461,0,0,1,400.105,351.3Z" style="fill:url(#linear-gradient-4)"/></svg>
