<svg width="18" height="19" viewBox="0 0 18 19" xmlns="http://www.w3.org/2000/svg" xmlns:xlink="http://www.w3.org/1999/xlink"><defs><path id="a" d="M12.06 0h4.667v8.613H12.06z"/></defs><g transform="translate(.364 .6)" fill="none" fill-rule="evenodd"><path d="M.6 7.742C.44 7.397.254 7.12.186 6.815c-.145-.652.03-1.234.546-1.67.164-.14.228-.237.114-.465-.396-.793-.298-1.314.348-1.908.172-.157.178-.276.095-.482C.925 1.391 1.365.587 2.296.43a3.1 3.1 0 0 1 .51-.035C5.331.392 7.856.387 10.38.401c.265.001.552.07.788.19.331.167.506.449.502.88a513.95 513.95 0 0 0-.002 6.92c.001.325-.108.492-.381.665-.347.22-.69.507-.923.845-.462.67-.81 1.423-1.274 2.091a12.343 12.343 0 0 1-1.396 1.68c-.97.97-1.692 2.055-1.862 3.47a2.068 2.068 0 0 1-.2.69c-.357.69-1.097.771-1.53.135a3.708 3.708 0 0 1-.527-1.246c-.35-1.551.293-2.841 1.088-4.088.173-.272.329-.587.384-.902.075-.43-.095-.584-.532-.595-.775-.019-1.552-.006-2.326-.047-.361-.02-.743-.072-1.07-.216-1.15-.506-1.468-1.89-.697-2.903.064-.084.13-.167.178-.228" fill="red"/><g transform="translate(12.06)"/><mask id="b" fill="#fff"><use xlink:href="#a"/></mask><g/><path d="M13.218 1.886c.244-.02.394-.144.397-.37.003-.226-.138-.374-.382-.377-.243-.003-.39.14-.396.365-.006.23.143.352.38.382m3.509 2.64c0 1.127.003 2.253-.001 3.38-.002.54-.19.701-.813.704-1.009.003-2.017.004-3.025 0-.59-.002-.819-.175-.821-.675a836.72 836.72 0 0 1 0-6.906c0-.433.242-.629.74-.632a226.99 226.99 0 0 1 3.196 0c.503.005.72.2.722.64.006 1.163.002 2.326.002 3.49" fill="red" mask="url(#b)"/></g></svg>
