<svg width="17" height="18" viewBox="0 0 17 18" xmlns="http://www.w3.org/2000/svg" xmlns:xlink="http://www.w3.org/1999/xlink"><defs><path id="a" d="M0 9.517h4.46v8.846H0z"/></defs><g transform="translate(.227)" fill="none" fill-rule="evenodd"><path d="M10.16 17.836c-1.304 0-2.61.022-3.913-.016-.315-.01-.661-.166-.923-.354-.167-.12-.287-.422-.29-.643-.02-2.323-.009-4.645-.016-6.968 0-.274.076-.458.336-.563.46-.184.786-.53 1.039-.948.413-.683.782-1.397 1.241-2.046.418-.59.9-1.144 1.41-1.653.938-.935 1.628-1.983 1.817-3.333a2.31 2.31 0 0 1 .303-.893c.331-.52.924-.556 1.35-.11.483.506.655 1.155.713 1.827.116 1.355-.46 2.485-1.167 3.574a2.968 2.968 0 0 0-.392.932c-.083.36.137.544.496.546.712.004 1.424-.005 2.135.015.327.01.663.036.977.122 1.414.385 1.902 1.91.982 3.061-.135.17-.136.266-.016.442.566.83.476 1.632-.268 2.322-.177.164-.17.277-.073.473.368.75.246 1.292-.359 1.867-.085.082-.149.28-.113.387.385 1.146-.149 1.943-1.354 1.956-1.304.014-2.61.003-3.914.003" fill="#4ABC4E"/><g transform="translate(0 9.479)"/><mask id="b" fill="#fff"><use xlink:href="#a"/></mask><g/><path d="M2.281 16.652c.098.076.221.24.371.269.228.044.384-.117.39-.352.004-.216-.119-.363-.346-.376-.246-.014-.362.135-.415.46M3.8 13.63c0 1.084.004 2.167-.001 3.25-.003.596-.216.78-.89.781-.954.002-1.908.004-2.861-.001-.595-.003-.806-.183-.807-.691-.002-2.24-.002-4.478.001-6.717.001-.506.197-.679.765-.681.995-.005 1.99-.005 2.985 0 .583.002.8.185.805.701.009 1.12.002 2.24.003 3.358" fill="#4ABC4E" mask="url(#b)"/></g></svg>
