<svg xmlns="http://www.w3.org/2000/svg" width="23" height="22" viewBox="0 0 23 22">
    <g fill="none" fill-rule="evenodd" stroke="#887FFF" stroke-opacity=".5">
        <path d="M.477 7.636h.478v11.932c0 .264.213.477.477.477h18.136c.264 0 .477-.213.477-.477V7.636h.478c.263 0 .477-.213.477-.477V4.295l-.003-.015c0-.03-.011-.06-.018-.091-.008-.032-.011-.064-.025-.094l-.004-.014L19.041.262C18.96.103 18.794 0 18.614 0H2.386c-.18 0-.345.102-.426.263L.05 4.082c-.002.004-.001.01-.003.014-.014.03-.018.061-.026.093-.007.031-.017.06-.018.091 0 .006-.003.01-.003.015V7.16c0 .264.214.477.477.477h0zm18.614 11.455H1.909V7.636h17.182v11.455h0zm.954-12.41H.955V4.774h19.09v1.909h0zM2.681.956H18.32l1.431 2.863H1.25L2.682.955h0z" transform="translate(1 1)"/>
        <path d="M7.16 14.318h6.68c.264 0 .478-.214.478-.477v-2.864c0-.263-.214-.477-.477-.477H7.159c-.263 0-.477.214-.477.477v2.864c0 .263.214.477.477.477h0zm.476-2.863h5.728v1.909H7.636v-1.91h0z" transform="translate(1 1)"/>
    </g>
</svg>
