<svg xmlns="http://www.w3.org/2000/svg" xmlns:xlink="http://www.w3.org/1999/xlink" width="26" height="23" viewBox="0 0 26 23">
    <defs>
        <path id="a" d="M0 .012h25.924V13.93H0z"/>
    </defs>
    <g fill="none" fill-rule="evenodd">
        <path fill="#B7B2F5" d="M9.848 23H3.004v-3.093c0-1.512-.014-3.024.011-4.535.006-.32.06-.737.256-.943C6.284 11.286 9.324 8.17 12.403 5c.261.24.468.41.656.602 2.785 2.849 5.58 5.687 8.333 8.567.32.336.563.904.574 1.371.056 2.451.026 4.904.026 7.43h-6.921c0-1.845.03-3.665-.01-5.483-.032-1.523-1.054-2.573-2.466-2.636-1.517-.066-2.712 1.064-2.74 2.662-.031 1.793-.007 3.587-.007 5.487"/>
        <g>
            <mask id="b" fill="#fff">
                <use xlink:href="#a"/>
            </mask>
            <path fill="#B7B2F5" d="M12.987 2.87c-.264.247-.504.463-.734.689-3.234 3.171-6.466 6.345-9.7 9.516-.212.208-.416.435-.663.597-.537.354-1.1.342-1.55-.125-.45-.467-.436-1.014-.057-1.533.12-.166.286-.302.435-.448C4.398 7.955 8.076 4.343 11.757.734c.984-.965 1.4-.965 2.4.016 3.682 3.608 7.36 7.221 11.039 10.833.148.146.301.29.43.452.417.52.398 1.065-.061 1.519-.489.483-1.092.495-1.624.06-.461-.375-.862-.822-1.287-1.24L12.987 2.87" mask="url(#b)"/>
        </g>
    </g>
</svg>
