<?xml version="1.0" encoding="utf-8"?>
<!-- Generator: Adobe Illustrator 23.0.3, SVG Export Plug-In . SVG Version: 6.00 Build 0)  -->
<svg version="1.1" id="Layer_1" xmlns="http://www.w3.org/2000/svg" xmlns:xlink="http://www.w3.org/1999/xlink" x="0px" y="0px"
	 viewBox="0 0 108 108" style="enable-background:new 0 0 108 108;" xml:space="preserve">
<style type="text/css">
	.st0{fill:#F4F4F4;}
	.st1{fill:none;stroke:#9C35EB;stroke-width:3;stroke-miterlimit:10;}
	.st2{fill:#FFFFFF;}
	.st3{fill:none;stroke:url(#SVGID_1_);stroke-width:3;stroke-miterlimit:10;}
	.st4{fill:none;stroke:url(#SVGID_2_);stroke-width:3;stroke-miterlimit:10;}
</style>
<rect x="0.1" y="0.1" class="st0" width="107.8" height="108"/>
<title>1</title>
<polygon class="st1" points="94.4,41.1 52.7,8.9 10.7,40.4 10.7,55.5 52.7,25 94.4,56.2 "/>
<polygon class="st1" points="21.5,89.3 84.3,89.3 84.6,49.6 52.7,25 21.5,47.8 "/>
<path class="st2" d="M95,79c0.1,1.8-0.2,3.6-0.9,5.3L94,84.5c0,0-5.1,10.8-13.2,16c0,0-9.9-8.7-12.6-16c-0.8-1.7-1.1-3.6-1.1-5.5
	c0-7.7,6.2-13.9,13.9-13.9S95,71.3,95,79z M86.6,79.5c0-2.8-2.3-5.1-5.2-5.1s-5.1,2.3-5.1,5.2c0,2.8,2.3,5.1,5.1,5.1
	C84.3,84.6,86.6,82.3,86.6,79.5C86.6,79.5,86.6,79.5,86.6,79.5L86.6,79.5z"/>
<path class="st2" d="M81.4,74.3c2.8,0,5.2,2.3,5.2,5.1c0,2.8-2.3,5.2-5.1,5.2c-2.8,0-5.2-2.3-5.2-5.1c0,0,0,0,0,0
	C76.3,76.6,78.6,74.3,81.4,74.3z"/>
<linearGradient id="SVGID_1_" gradientUnits="userSpaceOnUse" x1="81.45" y1="37.19" x2="81.45" y2="23.89" gradientTransform="matrix(1 0 0 -1 0 110)">
	<stop  offset="0.15" style="stop-color:#73F23F"/>
	<stop  offset="0.28" style="stop-color:#6FF03F"/>
	<stop  offset="0.4" style="stop-color:#64EA40"/>
	<stop  offset="0.52" style="stop-color:#52DF41"/>
	<stop  offset="0.63" style="stop-color:#37D142"/>
	<stop  offset="0.75" style="stop-color:#16BE44"/>
	<stop  offset="0.81" style="stop-color:#00B245"/>
</linearGradient>
<path class="st3" d="M86.6,79.4c0,2.8-2.3,5.2-5.1,5.2c-2.8,0-5.2-2.3-5.2-5.1c0-2.8,2.3-5.2,5.1-5.2c0,0,0,0,0,0
	C84.3,74.3,86.6,76.6,86.6,79.4z"/>
<linearGradient id="SVGID_2_" gradientUnits="userSpaceOnUse" x1="81.0746" y1="46.38" x2="81.0746" y2="7.6228" gradientTransform="matrix(1 0 0 -1 0 110)">
	<stop  offset="0.15" style="stop-color:#73F23F"/>
	<stop  offset="0.28" style="stop-color:#6FF03F"/>
	<stop  offset="0.4" style="stop-color:#64EA40"/>
	<stop  offset="0.52" style="stop-color:#52DF41"/>
	<stop  offset="0.63" style="stop-color:#37D142"/>
	<stop  offset="0.75" style="stop-color:#16BE44"/>
	<stop  offset="0.81" style="stop-color:#00B245"/>
</linearGradient>
<path class="st4" d="M95,79c0-7.7-6.2-13.9-13.9-13.9S67.1,71.3,67.1,79c0,1.9,0.4,3.7,1.1,5.5c2.7,7.4,12.6,16,12.6,16
	c8.2-5.2,13.2-16,13.2-16l0.1-0.2C94.7,82.6,95.1,80.8,95,79z"/>
<rect x="44" y="55" class="st1" width="16.4" height="34.3"/>
</svg>
