<?xml version="1.0" encoding="utf-8"?>
<!-- Generator: Adobe Illustrator 23.0.3, SVG Export Plug-In . SVG Version: 6.00 Build 0)  -->
<svg version="1.1" id="Layer_1" xmlns="http://www.w3.org/2000/svg" xmlns:xlink="http://www.w3.org/1999/xlink" x="0px" y="0px"
	 viewBox="0 0 108 108" style="enable-background:new 0 0 108 108;" xml:space="preserve">
<style type="text/css">
	.st0{fill:#F4F4F4;}
	.st1{fill:none;stroke:#9C35EB;stroke-width:3;stroke-miterlimit:10;}
	.st2{fill:#FFFFFF;}
	.st3{fill:none;stroke:url(#SVGID_1_);stroke-width:3;stroke-miterlimit:10;}
	.st4{fill:none;stroke:url(#SVGID_2_);stroke-width:3;stroke-miterlimit:10;}
</style>
<rect x="0" y="0" class="st0" width="107.8" height="108"/>
<title>dispatch icons</title>
<polygon class="st1" points="94.8,40.3 53,8.2 11,39.6 11,54.7 53,24.3 94.8,55.4 "/>
<polygon class="st1" points="21.8,88.5 84.6,88.5 85,48.8 53,24.3 21.8,47 "/>
<path class="st2" d="M97.4,78.4c0.1,1.8-0.2,3.6-0.9,5.3l-0.1,0.1c0,0-5,10.9-13.2,16c0,0-9.9-8.7-12.6-16c-0.7-1.7-1.1-3.6-1.1-5.4
	c0-7.7,6.2-13.9,13.9-13.9S97.4,70.7,97.4,78.4z M89,78.9c0-2.8-2.3-5.2-5.1-5.2c-2.8,0-5.2,2.3-5.2,5.1c0,2.8,2.3,5.2,5.1,5.2
	c0,0,0.1,0,0.1,0C86.7,84,89,81.7,89,78.9z"/>
<path class="st2" d="M83.9,73.8c2.8,0,5.1,2.3,5.1,5.2c0,2.8-2.3,5.1-5.2,5.1c-2.8,0-5.1-2.3-5.1-5.1C78.7,76.1,81,73.8,83.9,73.8
	C83.9,73.8,83.9,73.8,83.9,73.8z"/>
<linearGradient id="SVGID_1_" gradientUnits="userSpaceOnUse" x1="83.8501" y1="24.48" x2="83.8501" y2="37.73" gradientTransform="matrix(1 0 0 -1 0 110)">
	<stop  offset="0.13" style="stop-color:#FA4F2F"/>
	<stop  offset="0.13" style="stop-color:#FA502F"/>
	<stop  offset="0.22" style="stop-color:#F96F2A"/>
	<stop  offset="0.32" style="stop-color:#F88825"/>
	<stop  offset="0.42" style="stop-color:#F79B22"/>
	<stop  offset="0.55" style="stop-color:#F6A920"/>
	<stop  offset="0.71" style="stop-color:#F6B11E"/>
	<stop  offset="1" style="stop-color:#F6B31E"/>
</linearGradient>
<path class="st3" d="M89,78.9c0,2.8-2.3,5.2-5.1,5.2c-2.8,0-5.2-2.3-5.2-5.1c0-2.8,2.3-5.2,5.1-5.2c0,0,0,0,0,0
	C86.7,73.8,89,76.1,89,78.9C89,78.9,89,78.9,89,78.9z"/>
<linearGradient id="SVGID_2_" gradientUnits="userSpaceOnUse" x1="83.495" y1="8.21" x2="83.495" y2="46.9387" gradientTransform="matrix(1 0 0 -1 0 110)">
	<stop  offset="0.13" style="stop-color:#FA4F2F"/>
	<stop  offset="0.13" style="stop-color:#FA502F"/>
	<stop  offset="0.22" style="stop-color:#F96F2A"/>
	<stop  offset="0.32" style="stop-color:#F88825"/>
	<stop  offset="0.42" style="stop-color:#F79B22"/>
	<stop  offset="0.55" style="stop-color:#F6A920"/>
	<stop  offset="0.71" style="stop-color:#F6B11E"/>
	<stop  offset="1" style="stop-color:#F6B31E"/>
</linearGradient>
<path class="st4" d="M97.4,78.4c0-7.7-6.2-13.9-13.9-13.9s-13.9,6.2-13.9,13.9c0,1.9,0.4,3.7,1.1,5.4c2.7,7.3,12.6,16,12.6,16
	c8.2-5.2,13.2-16,13.2-16l0.1-0.1C97.2,82.1,97.5,80.3,97.4,78.4z"/>
<rect x="45.9" y="53.8" class="st1" width="16.4" height="34.3"/>
</svg>
