<?xml version="1.0" encoding="utf-8"?>
<!-- Generator: Adobe Illustrator 23.0.3, SVG Export Plug-In . SVG Version: 6.00 Build 0)  -->
<svg version="1.1" id="Layer_1" xmlns="http://www.w3.org/2000/svg" xmlns:xlink="http://www.w3.org/1999/xlink" x="0px" y="0px"
	 viewBox="0 0 108 108" style="enable-background:new 0 0 108 108;" xml:space="preserve">
<style type="text/css">
	.st0{fill:#F4F4F4;}
	.st1{fill:none;stroke:#9C35EB;stroke-width:3;stroke-miterlimit:10;}
	.st2{fill:#FFFFFF;}
	.st3{fill:none;stroke:url(#SVGID_1_);stroke-width:3;stroke-miterlimit:10;}
	.st4{fill:none;stroke:url(#SVGID_2_);stroke-width:3;stroke-miterlimit:10;}
</style>
<rect x="0.1" y="0.1" class="st0" width="107.8" height="108"/>
<title>3</title>
<circle class="st1" cx="52.3" cy="51.7" r="18.8"/>
<path class="st1" d="M99.9,52.3C48.2-10.3,8.1,49.8,6.5,52.2l0,0C6.5,52.2,47.2,115.9,99.9,52.3z"/>
<path class="st2" d="M101.5,67.6c0.1,1.8-0.2,3.6-0.9,5.3l-0.1,0.1c0,0-5,10.9-13.2,16c0,0-9.9-8.7-12.6-16
	c-0.8-1.7-1.1-3.6-1.1-5.4c0-7.7,6.2-13.9,13.9-13.9S101.5,59.9,101.5,67.6z M93.1,68.1c0-2.8-2.3-5.2-5.1-5.2
	c-2.8,0-5.2,2.3-5.2,5.1c0,2.8,2.3,5.2,5.1,5.2c0,0,0,0,0,0C90.8,73.2,93.1,70.9,93.1,68.1C93.1,68.1,93.1,68.1,93.1,68.1z"/>
<path class="st2" d="M88,62.9c2.8,0,5.1,2.3,5.1,5.2c0,2.8-2.3,5.1-5.2,5.1c-2.8,0-5.1-2.3-5.1-5.1C82.8,65.2,85.1,62.9,88,62.9
	C88,62.9,88,62.9,88,62.9z"/>
<linearGradient id="SVGID_1_" gradientUnits="userSpaceOnUse" x1="87.9701" y1="35.31" x2="87.9701" y2="48.56" gradientTransform="matrix(1 0 0 -1 0 110)">
	<stop  offset="0.13" style="stop-color:#FA4F2F"/>
	<stop  offset="0.13" style="stop-color:#FA502F"/>
	<stop  offset="0.22" style="stop-color:#F96F2A"/>
	<stop  offset="0.32" style="stop-color:#F88825"/>
	<stop  offset="0.42" style="stop-color:#F79B22"/>
	<stop  offset="0.55" style="stop-color:#F6A920"/>
	<stop  offset="0.71" style="stop-color:#F6B11E"/>
	<stop  offset="1" style="stop-color:#F6B31E"/>
</linearGradient>
<path class="st3" d="M93.1,68.1c0,2.8-2.3,5.2-5.1,5.2c-2.8,0-5.2-2.3-5.2-5.1c0-2.8,2.3-5.2,5.1-5.2c0,0,0,0,0.1,0
	C90.8,62.9,93.1,65.2,93.1,68.1L93.1,68.1z"/>
<linearGradient id="SVGID_2_" gradientUnits="userSpaceOnUse" x1="87.5846" y1="19.04" x2="87.5846" y2="57.7387" gradientTransform="matrix(1 0 0 -1 0 110)">
	<stop  offset="0.13" style="stop-color:#FA4F2F"/>
	<stop  offset="0.13" style="stop-color:#FA502F"/>
	<stop  offset="0.22" style="stop-color:#F96F2A"/>
	<stop  offset="0.32" style="stop-color:#F88825"/>
	<stop  offset="0.42" style="stop-color:#F79B22"/>
	<stop  offset="0.55" style="stop-color:#F6A920"/>
	<stop  offset="0.71" style="stop-color:#F6B11E"/>
	<stop  offset="1" style="stop-color:#F6B31E"/>
</linearGradient>
<path class="st4" d="M101.5,67.6c0-7.7-6.2-13.9-13.9-13.9s-13.9,6.2-13.9,13.9l0,0c0,1.9,0.4,3.7,1.1,5.4c2.7,7.3,12.6,16,12.6,16
	c8.2-5.2,13.2-16,13.2-16l0.1-0.1C101.3,71.2,101.6,69.4,101.5,67.6z"/>
</svg>
