<?xml version="1.0" encoding="utf-8"?>
<!-- Generator: Adobe Illustrator 23.0.3, SVG Export Plug-In . SVG Version: 6.00 Build 0)  -->
<svg version="1.1" id="Layer_1" xmlns="http://www.w3.org/2000/svg" xmlns:xlink="http://www.w3.org/1999/xlink" x="0px" y="0px"
	 viewBox="0 0 108 108" style="enable-background:new 0 0 108 108;" xml:space="preserve">
<style type="text/css">
	.st0{fill:#F4F4F4;}
	.st1{fill:none;stroke:#9C35EB;stroke-width:3;stroke-miterlimit:10;}
	.st2{fill:#FFFFFF;}
	.st3{fill:none;stroke:url(#SVGID_1_);stroke-width:3;stroke-miterlimit:10;}
	.st4{fill:none;stroke:url(#SVGID_2_);stroke-width:3;stroke-miterlimit:10;}
</style>
<rect x="0.1" y="0.1" class="st0" width="107.8" height="108"/>
<title>2</title>
<circle class="st1" cx="52.2" cy="53.6" r="17.3"/>
<path class="st1" d="M95.9,54.2c-47.5-57.4-84.2-2.3-85.7-0.1l0,0C10.2,54.1,47.5,112.6,95.9,54.2z"/>
<path class="st2" d="M98.5,67.2c0.1,1.7-0.2,3.3-0.8,4.9v0.1c0,0-4.7,9.9-12.2,14.7c0,0-9.1-8-11.5-14.7c-0.7-1.6-1-3.3-1-5
	c0-7.1,5.7-12.8,12.8-12.8C92.8,54.4,98.6,60.2,98.5,67.2L98.5,67.2z M90.8,67.6c0-2.6-2.1-4.7-4.7-4.7s-4.7,2.1-4.7,4.7
	c0,2.6,2.1,4.7,4.7,4.7C88.7,72.4,90.8,70.3,90.8,67.6C90.8,67.6,90.8,67.6,90.8,67.6z"/>
<path class="st2" d="M86.1,62.9c2.6,0,4.7,2.1,4.7,4.7c0,2.6-2.1,4.7-4.7,4.7c-2.6,0-4.7-2.1-4.7-4.7c0,0,0,0,0,0
	C81.4,65,83.5,62.9,86.1,62.9z"/>
<linearGradient id="SVGID_1_" gradientUnits="userSpaceOnUse" x1="86.115" y1="48.58" x2="86.115" y2="36.1398" gradientTransform="matrix(1 0 0 -1 0 110)">
	<stop  offset="0.15" style="stop-color:#73F23F"/>
	<stop  offset="0.28" style="stop-color:#6FF03F"/>
	<stop  offset="0.4" style="stop-color:#64EA40"/>
	<stop  offset="0.52" style="stop-color:#52DF41"/>
	<stop  offset="0.63" style="stop-color:#37D142"/>
	<stop  offset="0.75" style="stop-color:#16BE44"/>
	<stop  offset="0.81" style="stop-color:#00B245"/>
</linearGradient>
<path class="st3" d="M90.8,67.6c0.1,2.6-1.9,4.8-4.5,4.9c-2.6,0.1-4.8-1.9-4.9-4.5c0-0.1,0-0.3,0-0.4c0.1-2.6,2.3-4.6,4.9-4.5
	C88.8,63.2,90.7,65.2,90.8,67.6z"/>
<linearGradient id="SVGID_2_" gradientUnits="userSpaceOnUse" x1="85.7514" y1="57.01" x2="85.7514" y2="21.21" gradientTransform="matrix(1 0 0 -1 0 110)">
	<stop  offset="0.15" style="stop-color:#73F23F"/>
	<stop  offset="0.28" style="stop-color:#6FF03F"/>
	<stop  offset="0.4" style="stop-color:#64EA40"/>
	<stop  offset="0.52" style="stop-color:#52DF41"/>
	<stop  offset="0.63" style="stop-color:#37D142"/>
	<stop  offset="0.75" style="stop-color:#16BE44"/>
	<stop  offset="0.81" style="stop-color:#00B245"/>
</linearGradient>
<path class="st4" d="M98.5,67.2c0-7.1-5.7-12.8-12.8-12.8c-7.1,0-12.8,5.7-12.8,12.8c0,1.7,0.3,3.4,1,5c2.5,6.8,11.5,14.7,11.5,14.7
	c7.4-4.8,12.1-14.7,12.1-14.7v-0.1C98.3,70.5,98.6,68.9,98.5,67.2z"/>
</svg>
