<svg xmlns="http://www.w3.org/2000/svg" xmlns:xlink="http://www.w3.org/1999/xlink" width="53" height="53" viewBox="0 0 53 53">
    <defs>
        <path id="mla2qs7gpb" d="M0.551 0.211L25.717 0.211 25.717 26.214 0.551 26.214z"/>
        <path id="l34osair0d" d="M0 0.46L23 0.46 23 24.7 0 24.7z"/>
        <filter id="gnv446yjaa" width="168.6%" height="168.6%" x="-34.3%" y="-34.3%" filterUnits="objectBoundingBox">
            <feOffset dy="2" in="SourceAlpha" result="shadowOffsetOuter1"/>
            <feGaussianBlur in="shadowOffsetOuter1" result="shadowBlurOuter1" stdDeviation="2"/>
            <feColorMatrix in="shadowBlurOuter1" result="shadowMatrixOuter1" values="0 0 0 0 0 0 0 0 0 0 0 0 0 0 0 0 0 0 0.14966674 0"/>
            <feMerge>
                <feMergeNode in="shadowMatrixOuter1"/>
                <feMergeNode in="SourceGraphic"/>
            </feMerge>
        </filter>
    </defs>
    <g fill="none" fill-rule="evenodd">
        <g>
            <g filter="url(#gnv446yjaa)" transform="translate(-630 -1366) translate(639 1375)">
                <g transform="translate(9)">
                    <mask id="idmtlf7q5c" fill="#fff">
                        <use xlink:href="#mla2qs7gpb"/>
                    </mask>
                    <path fill="#6C62F5" d="M4.192 17.962c.162.355.285.683.454.985 1.557 2.76 5.41 3.295 7.699 1.072 2.337-2.274 4.687-4.535 6.998-6.835 1.392-1.386 1.788-3.067 1.13-4.899-.65-1.812-2.005-2.878-3.963-3.158-1.651-.236-3.044.313-4.213 1.438-.73.697-1.446 1.412-2.159 2.126-.14.139-.251.193-.46.12-1.868-.67-3.794-.872-5.77-.62-.067.01-.14 0-.26 0 .072-.082.106-.13.15-.17C5.582 6.284 7.31 4.488 9.166 2.83 11.992.304 15.335-.41 18.958.754c3.602 1.158 5.835 3.663 6.558 7.303.658 3.314-.31 6.22-2.739 8.627-2.35 2.331-4.718 4.646-7.12 6.925-1.673 1.584-3.718 2.445-6.05 2.584-3.262.193-5.983-.917-8.144-3.305-.336-.37-.607-.801-.883-1.221-.053-.083-.031-.295.04-.365 1.005-1 2.017-1.985 3.037-2.968.153-.144.346-.243.535-.372" mask="url(#idmtlf7q5c)"/>
                </g>
                <g transform="translate(0 10)">
                    <mask id="975wc77tze" fill="#fff">
                        <use xlink:href="#l34osair0d"/>
                    </mask>
                    <path fill="#6C62F5" d="M20.138 17.276c-.047.06-.078.106-.115.143-1.638 1.627-3.223 3.31-4.929 4.86-2.573 2.337-5.621 2.996-8.916 1.915C2.889 23.12.85 20.784.186 17.397c-.594-3.03.238-5.72 2.403-7.937 2.18-2.235 4.386-4.45 6.652-6.6C13.276-.967 19.963-.09 22.896 4.588c.155.246.14.38-.068.58-.898.865-1.777 1.752-2.668 2.623-.146.143-.33.246-.523.389-.265-.777-.632-1.425-1.186-1.967-1.589-1.552-4.198-1.675-5.912-.257-.234.193-.455.404-.67.617-1.977 1.963-3.956 3.923-5.925 5.893-1.79 1.791-1.903 4.395-.28 6.222 1.721 1.936 4.648 1.99 6.579.11.675-.659 1.335-1.335 2.013-1.992.081-.077.251-.145.342-.112 1.761.617 3.562.815 5.412.565.03-.005.064.008.128.017" mask="url(#975wc77tze)"/>
                </g>
            </g>
        </g>
    </g>
</svg>
