<svg xmlns="http://www.w3.org/2000/svg" width="17" height="14" viewBox="0 0 17 14">
    <path fill="#FFF" fill-rule="evenodd" d="M1.77 0C.796 0 0 .683 0 1.522v7.913c0 .839.795 1.522 1.77 1.522h7.574l1.673 2.875c.06.103.182.168.316.168a.365.365 0 0 0 .317-.168l1.673-2.875h1.906c.976 0 1.771-.683 1.771-1.522V1.522C17 .683 16.205 0 15.23 0H1.77zm13.288 9.743h-1.916a.333.333 0 0 0-.284.142L11.57 12 10.28 9.886a.319.319 0 0 0-.276-.143H1.942c-.52 0-.942-.346-.942-.772V1.773C1 1.347 1.423 1 1.942 1h13.116c.52 0 .942.347.942.773V8.97c0 .426-.423.772-.942.772z"/>
</svg>
