<svg xmlns="http://www.w3.org/2000/svg" xmlns:xlink="http://www.w3.org/1999/xlink" width="28" height="25" viewBox="0 0 28 25">
    <defs>
        <path id="a" d="M0 .176h27.837v8.676H0z"/>
    </defs>
    <g fill="none" fill-rule="evenodd">
        <path fill="#8D8D8D" d="M25.185 13.922c-.505 0-1.01.006-1.515-.003-.164-.003-.25.04-.322.217-.708 1.752-1.969 2.708-3.756 2.853-1.696.137-3.409-1.027-4.075-2.758-.092-.24-.198-.315-.438-.315-4.533.008-9.066.004-13.6.01-.373 0-.71-.074-1-.335a1.486 1.486 0 0 1-.402-1.568c.193-.576.678-.944 1.27-.945 4.572-.002 9.144-.004 13.716.006.257 0 .363-.084.458-.33C16.16 9.1 17.717 8.006 19.4 8c1.691-.006 3.26 1.09 3.905 2.759.098.252.21.33.462.325.941-.019 1.883-.01 2.825-.007.814.002 1.411.61 1.407 1.427-.004.82-.596 1.413-1.418 1.417-.466.003-.931.001-1.397.001"/>
        <g>
            <mask id="b" fill="#fff">
                <use xlink:href="#a"/>
            </mask>
            <path fill="#8D8D8D" d="M9.127 6.843c1.26-.005 2.253-1.036 2.252-2.336 0-1.29-1.013-2.34-2.257-2.344-1.25-.003-2.275 1.064-2.27 2.364.004 1.289 1.02 2.322 2.275 2.316m10.811-.952c-2.18 0-4.361.004-6.542-.005-.219-.001-.316.07-.399.277-.662 1.655-2.196 2.7-3.921 2.69-1.685-.011-3.207-1.078-3.847-2.714-.08-.207-.19-.253-.387-.252-1.148.008-2.296.016-3.444 0-1.003-.014-1.642-.938-1.31-1.86.197-.542.69-.898 1.279-.9 1.168-.005 2.335-.008 3.503.003.197.002.284-.062.357-.248C5.88 1.227 7.38.185 9.104.176c1.711-.01 3.24 1.037 3.892 2.682.084.21.185.273.4.272 4.343-.007 8.686-.006 13.028-.004.917 0 1.533.728 1.394 1.637-.087.563-.557 1.036-1.107 1.105-.152.02-.308.022-.462.022l-6.31.001" mask="url(#b)"/>
        </g>
        <path fill="#8D8D8D" d="M9.149 22.916c1.267.004 2.28-1.056 2.285-2.392.007-1.359-1-2.449-2.266-2.452-1.254-.003-2.284 1.077-2.289 2.4-.005 1.362.996 2.44 2.27 2.444m-7.779-.994c-.803-.007-1.373-.615-1.37-1.431.003-.788.58-1.416 1.327-1.421 1.165-.008 2.33-.009 3.494.003.234.003.347-.059.443-.307C5.91 17.086 7.46 16 9.162 16c1.705.002 3.246 1.088 3.892 2.773.097.254.223.3.45.3 4.368-.007 8.736-.005 13.104-.005.566 0 .995.266 1.243.805.242.525.187 1.044-.15 1.51-.236.327-.554.511-.946.534a7.039 7.039 0 0 1-.407.008c-4.27 0-8.541.003-12.812-.005-.254-.001-.385.06-.49.33-.66 1.688-2.217 2.763-3.938 2.75-1.677-.013-3.215-1.125-3.86-2.79-.037-.094-.077-.187-.117-.285-1.26 0-2.51.007-3.76-.003z"/>
        <path fill="#FEFEFE" d="M9.01 7C7.901 7.006 7.004 5.902 7 4.526c-.004-1.39.901-2.53 2.006-2.526C10.105 2.003 11 3.127 11 4.504c0 1.39-.877 2.49-1.99 2.496M19.491 15A2.484 2.484 0 0 1 17 12.478c.006-1.367 1.136-2.481 2.513-2.478A2.494 2.494 0 0 1 22 12.53 2.478 2.478 0 0 1 19.491 15"/>
    </g>
</svg>
